<?xml version="1.0" encoding="utf-8"?>
<!-- Generator: Adobe Illustrator 17.0.0, SVG Export Plug-In . SVG Version: 6.00 Build 0)  -->
<!DOCTYPE svg PUBLIC "-//W3C//DTD SVG 1.1//EN" "http://www.w3.org/Graphics/SVG/1.1/DTD/svg11.dtd" [
	<!ENTITY ns_flows "http://ns.adobe.com/Flows/1.0/">
	<!ENTITY ns_extend "http://ns.adobe.com/Extensibility/1.0/">
	<!ENTITY ns_ai "http://ns.adobe.com/AdobeIllustrator/10.0/">
	<!ENTITY ns_graphs "http://ns.adobe.com/Graphs/1.0/">
]>
<svg version="1.1" id="Layer_1" xmlns:x="&ns_extend;" xmlns:i="&ns_ai;" xmlns:graph="&ns_graphs;"
	 xmlns="http://www.w3.org/2000/svg" xmlns:xlink="http://www.w3.org/1999/xlink" xmlns:a="http://ns.adobe.com/AdobeSVGViewerExtensions/3.0/"
	 x="0px" y="0px" width="24.557px" height="22px" viewBox="0 0 24.557 22" enable-background="new 0 0 24.557 22"
	 xml:space="preserve">
<g>
	<defs>
		<rect id="SVGID_1_" x="0" width="24.557" height="22"/>
	</defs>
	<clipPath id="SVGID_2_">
		<use xlink:href="#SVGID_1_"  overflow="visible"/>
	</clipPath>
	<path clip-path="url(#SVGID_2_)" d="M20.442,22H4.125c-0.284-0.183-0.367-0.431-0.367-0.77c0.009-2.658,0.009-5.307,0.009-7.966
		v-0.523c-1.045,0-2.035-0.009-3.025,0.009C0.376,12.76,0.119,12.641,0,12.283v-0.092c0.174-0.211,0.339-0.431,0.532-0.623
		C4.217,7.874,7.911,4.189,11.605,0.504c0.183-0.183,0.394-0.33,0.587-0.504h0.183c0.99,0.962,1.971,1.925,3.025,2.952V2.42
		c0-0.642,0.128-0.761,0.788-0.761h2.154c0.651,0,0.788,0.138,0.788,0.816v1.879c0.009,0.797-0.046,1.953,0.028,2.191
		c0.22,0.688,4.143,4.391,5.399,5.656v0.183c-0.165,0.348-0.458,0.449-0.825,0.431c-0.367-0.018-0.733-0.009-1.1-0.009H20.79v0.559
		c0,2.622-0.009,5.243,0.009,7.865C20.808,21.56,20.717,21.817,20.442,22"/>
</g>
</svg>
